<svg xmlns="http://www.w3.org/2000/svg" width="45.186" height="40" viewBox="0 0 45.186 40"><defs><style>.cls-1{fill-rule:evenodd;}</style></defs><g id="Layer_2" data-name="Layer 2"><g id="Layer_1-2" data-name="Layer 1"><path class="cls-1" d="M0,40H29.9583a53.466,53.466,0,0,1,4.28-11.7184c2.4965-4.7892,5.961-8.7633,10.5974-9.3747.3567-.1019.6624-.8661-.2547-.8661l-15.9981-.1529a27.8869,27.8869,0,0,0-11.3618,2.5984C9.5785,24.1038,4.5345,30.931,0,40Z"/><path class="cls-1" d="M28.5827,14.831V15.85c-3.5665-2.1908-9.8333-4.8911-10.8523-9.5275C17.2719,4.3354,17.119.0556,19.9722.0046c1.3247-.0509,3.057.2038,3.3627,6.6744.1528,3.6174,2.6493,5.91,5.2478,8.152Z"/><path class="cls-1" d="M35.6137,14.9838v1.019c-3.5665-2.3437-9.6295-4.6874-10.6485-9.12C24.5067,4.8958,24.3539.7179,27.207.667c1.3247-.051,3.057.6114,3.3627,6.5215.1528,3.7193,2.4456,5.5535,5.044,7.7953Z"/><path class="cls-1" d="M40.25,15.799c-3.5665-2.1908-7.3877-4.2288-8.6614-8.1519-.6114-1.9361-.3057-6.2159,2.5475-6.3178,1.3246-.0509,3.6174.5605,3.1079,6.6744-.2038,2.8022,1.019,4.4836,2.7512,6.1649l.2548.2548V15.799Z"/></g></g></svg>